# xmcd CD Database Entry
#
# Track frame offsets:
# 150
# 18410
# 32027
# 48045
# 60384
# 72057
# 86629
# 98791
# 111206
# 131201
#
# Disc length: 1963 seconds
#
# Revision: 2
# Processed by: cddbd v1.5.1PL0 Copyright (c) Steve Scherf et al.
# Submitted via: tcd 2.0b
#
DISCID=7c07a90a
DTITLE=Ween - 12 Golden Country Greats
DYEAR=1900
DGENRE=
TTITLE0=I'm Holding You
TTITLE1=Japanese Cowboy
TTITLE2=Piss Up A Rope
TTITLE3=I Don't Wanna Leave You On The Farm
TTITLE4=Pretty Girl
TTITLE5=Powder Blue
TTITLE6=Mister Richard Smoker
TTITLE7=Help Me Srape The Mucus Of My Brain
TTITLE8=You Were The Fool
TTITLE9=Fluffy
EXTD=
EXTT0=
EXTT1=
EXTT2=
EXTT3=
EXTT4=
EXTT5=
EXTT6=
EXTT7=
EXTT8=
EXTT9=
PLAYORDER=
